<?xml version="1.0" encoding="UTF-8"?>
<svg version="1.1" xmlns="http://www.w3.org/2000/svg" width="512" height="512">
<path d="M0 0 C0.87180908 0.00572021 1.74361816 0.01144043 2.6418457 0.01733398 C15.39473356 0.36716383 24.90864288 5.3938351 33.95703125 14.15234375 C43.6423698 24.57327764 45.53819576 36.42112207 45.6640625 50.08984375 C45.69311172 52.03933678 45.69311172 52.03933678 45.7227478 54.0282135 C45.77381345 57.46234179 45.8135748 60.89650901 45.85089111 64.33081055 C45.89109231 67.84368315 45.94211063 71.35639738 45.9921875 74.86914062 C46.08864336 81.74597768 46.17314397 88.6229167 46.25 95.5 C46.86702286 95.33897797 47.48404572 95.17795593 48.11976624 95.01205444 C59.58606729 92.25584501 73.05737615 93.78464454 83.25 99.5 C92.61407705 105.47314612 99.15804565 113.14337217 103.25 123.5 C103.25 124.49 103.25 125.48 103.25 126.5 C104.20648438 126.17902344 105.16296875 125.85804688 106.1484375 125.52734375 C117.0441634 122.43812362 130.25844315 123.29510874 140.484375 127.94921875 C151.54312902 134.15024325 158.05886442 142.08409564 163.25 153.5 C164.20390625 153.17773438 165.1578125 152.85546875 166.140625 152.5234375 C177.02699353 149.43258412 191.33716748 149.99106521 201.25 155.5 C212.62562711 162.16672509 221.02921037 171.53697236 224.81355572 184.41824913 C225.25413224 186.51970993 225.38385362 188.39761751 225.39717102 190.54238892 C225.40790398 191.735877 225.40790398 191.735877 225.41885376 192.95347595 C225.42154266 193.81783768 225.42423157 194.6821994 225.42700195 195.57275391 C225.43357315 196.49052109 225.44014435 197.40828827 225.44691467 198.35386658 C225.46663658 201.39476614 225.47831512 204.43561604 225.48828125 207.4765625 C225.49235678 208.52058605 225.4964323 209.5646096 225.50063133 210.64027023 C225.52149903 216.17879792 225.53579115 221.71730088 225.54516602 227.25585938 C225.55616129 232.93315113 225.5904788 238.61004343 225.63033772 244.28719521 C225.65670864 248.68690635 225.66487642 253.08652587 225.66844749 257.48630905 C225.67327003 259.57593828 225.68475743 261.66556464 225.70348549 263.75511551 C225.9210235 289.66140367 219.41957838 309.91528093 207.30679321 332.64492798 C202.47865938 341.73239317 198.65775957 350.63994807 195.82250977 360.51660156 C195.16736708 362.78627284 194.4985698 365.04889896 193.796875 367.3046875 C193.57483398 368.03413574 193.35279297 368.76358398 193.12402344 369.51513672 C191.38754153 373.45859983 188.04070733 375.60464634 184.25 377.5 C181.61854332 377.60437124 179.01316757 377.64779629 176.38116455 377.64717102 C175.55881152 377.65084771 174.73645849 377.6545244 173.88918567 377.6583125 C171.11784933 377.66937583 168.34655046 377.67319766 165.57519531 377.67700195 C163.59451172 377.6832646 161.61382931 377.68991122 159.63314819 377.69691467 C154.24047785 377.71434283 148.84781639 377.72488137 143.45512486 377.7331202 C140.08778541 377.73826649 136.72044875 377.74434238 133.35311127 377.75063133 C122.82282272 377.76968843 112.29254122 377.78391849 101.76223874 377.7922433 C89.59692762 377.80201877 77.4317983 377.8283443 65.26655126 377.86874419 C55.87031499 377.89888016 46.47413091 377.91370978 37.07784724 377.91702431 C31.46275829 377.91937767 25.84786345 377.92837526 20.23282623 377.95348549 C14.95017292 377.97672709 9.66784205 377.98101514 4.38515091 377.97072411 C2.44613957 377.97022768 0.50711257 377.97657936 -1.43185043 377.99028015 C-4.079365 378.0079409 -6.72571509 378.00092182 -9.37322998 377.98774719 C-10.52392538 378.00420106 -10.52392538 378.00420106 -11.69786716 378.02098733 C-16.85359163 377.95905666 -19.76755269 376.73606646 -23.75 373.5 C-27.62467724 368.40633876 -28.93702294 361.71402719 -30.5 355.625 C-39.43692228 322.81290185 -58.76462779 298.2604106 -82.5546875 274.73828125 C-83.03976273 274.25822065 -83.52483795 273.77816006 -84.02461243 273.28355217 C-88.58560462 268.77006297 -93.14846074 264.25852214 -97.73046875 259.76635742 C-100.26242216 257.28333026 -102.78415026 254.7902923 -105.2998085 252.29076195 C-106.69834399 250.9066719 -108.10754469 249.53338428 -109.51705933 248.16047668 C-120.34217714 237.37969974 -126.77065601 225.51476726 -127.25 210 C-126.81195602 196.27933207 -122.00486135 185.21694698 -112.0625 175.75 C-101.84929387 167.44194962 -90.22263299 163.89838878 -77.125 164.625 C-64.82011547 166.18099557 -55.3454653 171.81158682 -46.75 180.5 C-46.74668985 179.79892467 -46.74337971 179.09784933 -46.73996925 178.37552929 C-46.65858638 161.28062716 -46.56644443 144.18581648 -46.46247292 127.0910368 C-46.41244891 118.8239748 -46.36600522 110.55692222 -46.328125 102.28979492 C-46.29508173 95.08031749 -46.25518332 87.87091535 -46.20720994 80.66152126 C-46.18206697 76.84770714 -46.1602504 73.03394219 -46.14665604 69.22006798 C-46.13372398 65.62248525 -46.11155249 62.02507217 -46.08261681 58.42758369 C-46.06937561 56.49384985 -46.06564121 54.56005803 -46.06230164 52.62628174 C-45.915562 37.16461071 -42.97687279 24.06120116 -32.015625 12.53515625 C-22.6626785 4.13363017 -12.51242802 -0.09625882 0 0 Z M-9.5 34.6875 C-13.92100475 40.21375593 -15.19890212 45.20904837 -15.13526917 52.17959595 C-15.14050486 52.92117207 -15.14574056 53.66274819 -15.15113491 54.42679632 C-15.16502849 56.89488851 -15.15781256 59.36245255 -15.15063477 61.83056641 C-15.15638072 63.60671958 -15.1634649 65.38286885 -15.17178345 67.15901184 C-15.18687006 70.97529341 -15.19267312 74.79143532 -15.19125557 78.60774612 C-15.18921937 84.64184576 -15.20880458 90.67575789 -15.23143005 96.70980835 C-15.27237316 108.42580588 -15.29100583 120.14178854 -15.30760193 131.85784149 C-15.32997053 146.77836078 -15.36346955 161.69883673 -15.41480106 176.61928499 C-15.43472821 182.61829402 -15.44430302 188.61720466 -15.44575322 194.61624551 C-15.4485021 198.34547407 -15.45932867 202.0746482 -15.47226334 205.80385399 C-15.4765453 207.53364114 -15.47740148 209.26344066 -15.47458839 210.99323082 C-15.47118975 213.35373693 -15.4799651 215.71389912 -15.49171448 218.07437134 C-15.48773338 218.75929393 -15.48375229 219.44421653 -15.47965056 220.14989436 C-15.51385654 224.02487537 -15.95436008 227.04514087 -17.75 230.5 C-20.44346571 232.31290961 -23.35450593 233.07621397 -26.5 233.8125 C-27.29921875 234.01488281 -28.0984375 234.21726562 -28.921875 234.42578125 C-34.87555028 234.58202411 -39.40225436 232.13243778 -43.62402344 228.16186523 C-44.96517179 226.80655658 -46.29310538 225.43807725 -47.609375 224.05859375 C-48.67686981 222.97337181 -48.67686981 222.97337181 -49.76593018 221.8662262 C-52.02288909 219.56827928 -54.26220358 217.25409885 -56.5 214.9375 C-58.75465496 212.62006875 -61.01290203 210.30635087 -63.2769165 207.99806213 C-64.6808859 206.56495907 -66.07904938 205.12613929 -67.47064209 203.68101501 C-68.42248383 202.704739 -68.42248383 202.704739 -69.39355469 201.70874023 C-69.94678406 201.13598862 -70.50001343 200.563237 -71.07000732 199.97312927 C-75.1940469 196.35689719 -78.962423 196.06225886 -84.27734375 196.1875 C-87.99790999 196.65771374 -90.02268437 197.97224405 -92.75 200.5 C-95.32339274 204.27430936 -96.43532857 207.77424783 -96.21188354 212.39173889 C-94.34052708 220.93351981 -86.04587498 227.56170219 -80.03741074 233.40751839 C-78.38754799 235.01367957 -76.74835498 236.6301072 -75.11135864 238.24937439 C-70.45992084 242.84640708 -65.78889178 247.42337683 -61.11523438 251.99780273 C-44.83819265 267.94234022 -30.14082552 283.57185514 -18.75 303.5 C-18.40404785 304.08700684 -18.0580957 304.67401367 -17.70166016 305.27880859 C-9.74967344 318.85319597 -5.32851608 332.43800657 0.25 347.5 C55.36 347.5 110.47 347.5 167.25 347.5 C169.56 341.23 171.87 334.96 174.25 328.5 C176.55162619 323.83631104 178.87336207 319.29560072 181.375 314.75 C187.76386284 302.72356037 192.86186706 291.80681431 194.34277344 278.14526367 C194.4707966 276.96964386 194.4707966 276.96964386 194.6014061 275.77027416 C195.43138359 267.58836777 195.54119432 259.45505747 195.515625 251.23828125 C195.51697821 249.66651856 195.51892413 248.09475628 195.52142334 246.522995 C195.52433432 243.27025261 195.52020292 240.01762177 195.51074219 236.76489258 C195.49924426 232.61157467 195.50599721 228.45851243 195.51788712 224.30520344 C195.52512648 221.07690004 195.52281005 217.84865704 195.51763153 214.62035179 C195.51630619 213.08824825 195.51790322 211.55613907 195.52259064 210.02404213 C195.52770212 207.88868293 195.51988623 205.7537368 195.50878906 203.6184082 C195.50719788 202.40917191 195.50560669 201.19993561 195.50396729 199.95405579 C195.12764485 194.83592147 194.28170969 190.79700647 191.0625 186.75 C187.43203565 183.84562852 184.05336375 181.3291283 179.19921875 181.625 C174.73155353 182.5673324 171.38989015 184.09097641 168.25 187.5 C165.25166347 194.17512876 164.8062278 199.8237957 164.72265625 207.05273438 C164.58991429 211.65575721 164.31723647 214.82066152 161.25 218.5 C157.5858247 221.33478427 154.83927015 221.91012197 150.25 221.875 C149.239375 221.88273438 148.22875 221.89046875 147.1875 221.8984375 C143.83874568 221.44421816 141.96782526 220.47660019 139.25 218.5 C134.72552821 212.35964543 135.10739344 205.90944725 135.07421875 198.59765625 C135.0510275 196.63605689 135.02691045 194.67446831 135.00195312 192.71289062 C134.96681914 189.6341217 134.93747063 186.55575189 134.92407227 183.47680664 C134.90857708 180.49577217 134.86836992 177.51588621 134.82421875 174.53515625 C134.82708138 173.16146629 134.82708138 173.16146629 134.83000183 171.76002502 C134.72370669 166.18889369 133.99770186 162.90222032 130.25 158.5 C127.04655099 156.11794817 124.25437369 154.68201699 120.25 154.5 C115.70183229 155.41453282 112.20669281 156.59236836 108.8125 159.8125 C105.21629422 165.99797394 104.95769688 171.56387657 104.94140625 178.53515625 C104.9162591 180.49805001 104.8908609 182.46094057 104.86523438 184.42382812 C104.83644918 187.50039934 104.81241233 190.57691526 104.79370117 193.65356445 C104.77204851 196.63520797 104.73262617 199.61622844 104.69140625 202.59765625 C104.69129044 203.51547379 104.69117462 204.43329132 104.6910553 205.37892151 C104.59361356 211.66989104 103.39260946 214.94269194 99.3125 219.8125 C94.55270263 222.43524549 89.5681068 222.28498651 84.25 221.5 C80.14555741 219.45937317 78.26643381 217.63368932 76.25 213.5 C75.00897954 209.77770373 75.11854896 206.15610452 75.1081543 202.25634766 C75.10467987 201.53388351 75.10120544 200.81141937 75.09762573 200.06706238 C75.09028735 198.50164174 75.08493177 196.93621083 75.08133507 195.37077713 C75.07415009 192.89035932 75.05846888 190.41013709 75.03999329 187.92977905 C74.98761585 180.87866883 74.93954873 173.82766785 74.92407227 166.77636719 C74.91397784 162.45973408 74.88461978 158.14359686 74.84275246 153.82715988 C74.83046144 152.18541595 74.82531773 150.54360193 74.82755089 148.90181351 C74.82991017 146.60148625 74.80769352 144.30257666 74.7800293 142.00244141 C74.77416306 140.69546295 74.76829681 139.3884845 74.76225281 138.04190063 C74.162941 133.89804267 72.84940729 131.74356469 70.25 128.5 C67.04655099 126.11794817 64.25437369 124.68201699 60.25 124.5 C55.66773724 125.42138856 52.19109047 126.58304006 48.8125 129.875 C45.7567769 135.00861481 44.99839318 138.87433435 44.97875977 144.87304688 C44.97353302 145.59726334 44.96830627 146.3214798 44.96292114 147.06764221 C44.95271268 148.63357894 44.94690626 150.1995493 44.94503975 151.76551819 C44.94136616 154.24581642 44.92461368 156.72571837 44.90428162 159.20593262 C44.84895708 166.25521477 44.81816781 173.30455419 44.79370117 180.35400391 C44.77781477 184.6716981 44.74758853 188.9891087 44.70893669 193.30665588 C44.69730039 194.94923388 44.69135646 196.5918626 44.69125557 198.23448181 C44.69106321 200.53227321 44.67277675 202.82928328 44.65063477 205.12695312 C44.64556412 206.43313599 44.64049347 207.73931885 44.63526917 209.08508301 C44.08702213 213.94458977 41.99441002 217.37965832 38.25 220.5 C32.80309398 222.31563534 26.60533979 222.432322 21.25 220.3125 C17.85471469 217.23552268 16.09600171 213.96206516 15.25 209.5 C15.15651178 207.21598118 15.12102569 204.92939327 15.11869812 202.64346313 C15.11552455 201.60950615 15.11552455 201.60950615 15.11228687 200.55466115 C15.10629676 198.24557191 15.10728631 195.93653747 15.1081543 193.62744141 C15.10512217 191.97158211 15.10160057 190.31572364 15.09762573 188.65986633 C15.08974091 185.09403007 15.08459341 181.5282038 15.08133507 177.96236038 C15.07542265 172.32313224 15.05888046 166.68396712 15.03999329 161.04476929 C15.03365606 159.11386303 15.02733043 157.18295673 15.02101612 155.2520504 C15.01785031 154.28510522 15.0146845 153.31816003 15.01142275 152.32191348 C14.9693483 139.19378677 14.93636442 126.06568967 14.92407227 112.9375 C14.91569465 104.08106151 14.89321637 95.22477934 14.8547166 86.36841905 C14.83494844 81.68229301 14.82255394 76.99640067 14.82755089 72.31023026 C14.83219392 67.90241482 14.81841096 63.4950426 14.79053879 59.08731651 C14.78362162 57.47084063 14.78350612 55.85431897 14.79073906 54.23784447 C14.7996267 52.02820418 14.78393779 49.82002585 14.76225281 47.61050415 C14.75986445 46.37496607 14.7574761 45.13942799 14.75501537 43.86644936 C14.00691399 38.87958051 11.8347551 35.67840764 7.8125 32.6875 C1.36262639 29.69853418 -3.78711686 30.14316114 -9.5 34.6875 Z " fill="#000000" transform="translate(236.75,134.5)"/>
<path d="M0 0 C0.82946136 -0.0065712 1.65892273 -0.0131424 2.51351929 -0.01991272 C5.26584967 -0.03966591 8.0181254 -0.05131348 10.77050781 -0.0612793 C11.70998512 -0.06535482 12.64946243 -0.06943035 13.61740875 -0.07362938 C18.59096559 -0.09449985 23.56449476 -0.1087967 28.53808594 -0.11816406 C33.67406833 -0.12922381 38.8096169 -0.1636159 43.94544601 -0.20333576 C47.8951701 -0.22949117 51.84479074 -0.237855 55.79459381 -0.24144554 C57.68760352 -0.24631516 59.58060849 -0.25793984 61.47353363 -0.27648354 C64.12593343 -0.30084969 66.77720987 -0.29991458 69.4296875 -0.29296875 C70.20913727 -0.30577881 70.98858704 -0.31858887 71.79165649 -0.33178711 C76.95958404 -0.28256025 79.93320897 0.68756357 83.97363281 4.17700195 C87.91683053 8.77267973 88.55060497 12.60052689 88.4753418 18.47387695 C88.48344627 19.68968445 88.48344627 19.68968445 88.49171448 20.93005371 C88.50417107 23.59608027 88.48773168 26.2610204 88.46972656 28.92700195 C88.46988162 30.78735409 88.47137176 32.64770655 88.47413635 34.50805664 C88.47551897 38.40175709 88.46298528 42.29508858 88.44018555 46.1887207 C88.41180138 51.17212519 88.4145401 56.15491687 88.42727566 61.1383667 C88.4342407 64.97832444 88.42643412 68.8181413 88.41401863 72.65808105 C88.40951216 74.49523376 88.40916029 76.33240162 88.41308403 78.16955566 C88.41600436 80.74005985 88.39945045 83.30972853 88.37768555 85.88012695 C88.38218719 86.63459106 88.38668884 87.38905518 88.3913269 88.16638184 C88.32486802 92.90601201 87.47954043 96.15202013 84.97363281 100.17700195 C79.87085839 104.78194472 76.6442367 105.33113858 69.94726562 105.35400391 C69.11780426 105.3605751 68.2883429 105.3671463 67.43374634 105.37391663 C64.68141596 105.39366981 61.92914022 105.40531739 59.17675781 105.4152832 C58.2372805 105.41935873 57.29780319 105.42343426 56.32985687 105.42763329 C51.35630004 105.44850376 46.38277086 105.46280061 41.40917969 105.47216797 C36.2731973 105.48322771 31.13764872 105.51761981 26.00181961 105.55733967 C22.05209552 105.58349508 18.10247489 105.59185891 14.15267181 105.59544945 C12.25966211 105.60031907 10.36665714 105.61194375 8.47373199 105.63048744 C5.82133219 105.65485359 3.17005575 105.65391849 0.51757812 105.64697266 C-0.26187164 105.65978271 -1.04132141 105.67259277 -1.84439087 105.68579102 C-7.0182506 105.63650765 -9.89235775 104.5420782 -14.02636719 101.17700195 C-18.0960093 96.54602989 -18.17872543 92.24588728 -18.1875 86.3125 C-18.1924649 85.51215332 -18.19742981 84.71180664 -18.20254517 83.88720703 C-18.21715783 81.23770286 -18.22396752 78.58825857 -18.22949219 75.9387207 C-18.23524466 74.09650165 -18.24100238 72.25428262 -18.24676514 70.4120636 C-18.25727277 66.54765545 -18.2631169 62.68326808 -18.26660156 58.81884766 C-18.27208383 53.87241854 -18.29610714 48.92626503 -18.32457352 43.97992229 C-18.34321829 40.17345889 -18.34840649 36.36706162 -18.34993744 32.56055641 C-18.35296066 30.73733833 -18.36097805 28.91412131 -18.37412262 27.0909481 C-18.39122061 24.53698275 -18.38929376 21.98368723 -18.3828125 19.4296875 C-18.39202728 18.67986099 -18.40124207 17.93003448 -18.41073608 17.15748596 C-18.37316085 12.41913363 -17.53233347 9.19899145 -15.02636719 5.17700195 C-9.92359277 0.57205919 -6.69697108 0.02286532 0 0 Z M12.97363281 30.17700195 C12.97363281 45.02700195 12.97363281 59.87700195 12.97363281 75.17700195 C27.49363281 75.17700195 42.01363281 75.17700195 56.97363281 75.17700195 C56.97363281 60.32700195 56.97363281 45.47700195 56.97363281 30.17700195 C42.45363281 30.17700195 27.93363281 30.17700195 12.97363281 30.17700195 Z " fill="#000000" transform="translate(202.0263671875,-0.177001953125)"/>
<path d="M0 0 C0.92425781 -0.03738281 1.84851563 -0.07476562 2.80078125 -0.11328125 C7.21167131 0.53731011 10.17795768 2.45094669 12.99829102 5.92895508 C14.34046999 7.87367069 15.58489764 9.85602966 16.8125 11.875 C17.27986572 12.62023926 17.74723145 13.36547852 18.22875977 14.13330078 C19.22054877 15.71640878 20.20717775 17.30275964 21.18896484 18.89208984 C23.14597282 22.05301801 25.1384927 25.19080907 27.13037109 28.32983398 C29.15102245 31.51726132 31.16086732 34.7114493 33.17138672 37.90527344 C35.17500686 41.08654471 37.18272476 44.26521762 39.19091797 47.44360352 C40.18642661 49.01936539 41.1815456 50.59537351 42.17626953 52.17163086 C44.7322046 56.22138658 47.29337042 60.26769019 49.86328125 64.30859375 C52.38228936 68.27070255 54.88203197 72.24442442 57.37158203 76.22509766 C58.56232921 78.11394523 59.77540901 79.98590788 60.99609375 81.85546875 C64.67979676 87.70343992 67.20268465 92.32040935 65.6875 99.3125 C63.76686852 104.67005096 60.77075568 107.77087216 55.6875 110.3125 C54.20606537 110.4130012 52.72023199 110.45189762 51.2354126 110.45967102 C50.29894897 110.46682632 49.36248535 110.47398163 48.39764404 110.48135376 C47.36697815 110.48404266 46.33631226 110.48673157 45.27441406 110.48950195 C43.64983276 110.49935875 43.64983276 110.49935875 41.99243164 110.50941467 C38.39599545 110.52918055 34.79960108 110.54081769 31.203125 110.55078125 C29.97680107 110.55485678 28.75047714 110.5589323 27.48699188 110.56313133 C21.66601897 110.58185207 15.84506256 110.5964144 10.02406526 110.6047433 C3.97653863 110.61353948 -2.07073698 110.63282609 -8.11816406 110.66918945 C-14.60439134 110.7075728 -21.09039206 110.72642569 -27.57672882 110.73094749 C-30.05027759 110.73582376 -32.52382257 110.74746711 -34.99730682 110.76598549 C-38.45908469 110.79029155 -41.91999915 110.789427 -45.38183594 110.7824707 C-46.91568939 110.80168579 -46.91568939 110.80168579 -48.48052979 110.82128906 C-54.41729532 110.77779223 -57.77183987 110.23546087 -62.3125 106.3125 C-65.44537827 102.56613382 -66.63884774 98.53972215 -66.3046875 93.69140625 C-65.53456331 87.4009995 -62.52936866 83.01128474 -59 77.875 C-57.71429744 75.93265318 -56.4291506 73.9899384 -55.14453125 72.046875 C-54.17507568 70.60151367 -54.17507568 70.60151367 -53.18603516 69.12695312 C-50.44348712 65.00705558 -47.81409208 60.81937902 -45.1875 56.625 C-44.20624824 55.06868302 -43.22447871 53.51269237 -42.2421875 51.95703125 C-41.51854004 50.80968506 -41.51854004 50.80968506 -40.78027344 49.63916016 C-39.29434484 47.28372111 -37.80750518 44.92885986 -36.3203125 42.57421875 C-35.57551636 41.39472656 -35.57551636 41.39472656 -34.81567383 40.19140625 C-33.8189741 38.61404031 -32.82142459 37.03721098 -31.82299805 35.4609375 C-29.2391864 31.37896358 -26.67414785 27.28677367 -24.13671875 23.17578125 C-23.61142578 22.33015625 -23.08613281 21.48453125 -22.54492188 20.61328125 C-21.5520131 19.01408304 -20.56455934 17.41147793 -19.58398438 15.8046875 C-9.8993822 0.26014974 -9.8993822 0.26014974 0 0 Z M-1.3125 45.3125 C-2.49082312 46.79421093 -2.49082312 46.79421093 -3.59765625 48.7578125 C-4.04197998 49.49902344 -4.48630371 50.24023438 -4.9440918 51.00390625 C-5.4162915 51.80699219 -5.88849121 52.61007813 -6.375 53.4375 C-7.36044893 55.08685274 -8.34744982 56.73527914 -9.3359375 58.3828125 C-9.8319043 59.21071289 -10.32787109 60.03861328 -10.83886719 60.89160156 C-13.34932557 65.01580721 -15.99537854 69.0516438 -18.67016602 73.07080078 C-20.70007456 75.94767489 -20.70007456 75.94767489 -21.3125 79.3125 C-7.1225 79.3125 7.0675 79.3125 21.6875 79.3125 C17.96788624 72.4932081 14.31716875 65.94810673 10.0625 59.5 C9.5984375 58.78908203 9.134375 58.07816406 8.65625 57.34570312 C7.75635505 55.96916891 6.85257923 54.59516139 5.94433594 53.22412109 C5.12677581 51.98062929 4.32194965 50.72863914 3.53222656 49.46728516 C2.63404063 48.0493811 1.66732354 46.67526767 0.6875 45.3125 C0.0275 45.3125 -0.6325 45.3125 -1.3125 45.3125 Z " fill="#000000" transform="translate(386.3125,58.6875)"/>
<path d="M0 0 C12.3399895 10.55050462 18.67572206 22.77825186 20.14453125 38.8671875 C21.00634842 52.37641015 17.00208181 65.5063466 8.26171875 75.875 C-1.79115633 86.7639154 -14.16815224 94.26732951 -29.16015625 95.171875 C-44.1711507 95.56491212 -57.4308854 91.61223029 -68.9765625 81.7109375 C-79.56567329 71.56374787 -85.63476086 59.76630672 -85.95678711 45.07006836 C-86.0804622 28.75259063 -82.28230031 16.07943158 -71.1015625 3.7734375 C-51.37472639 -14.77055157 -21.49482734 -16.4520526 0 0 Z M-52.60546875 31.09375 C-55.57381925 36.32943833 -55.18960202 42.12818899 -54.6640625 47.9609375 C-52.97657363 53.86232714 -49.72316987 57.48900107 -44.6640625 60.9609375 C-39.31227189 63.88927576 -34.65452888 64.97560933 -28.6640625 63.9609375 C-22.31725223 61.89007493 -17.4894958 58.80465103 -13.79296875 53.19140625 C-10.85838609 47.39332079 -10.06179669 42.0961511 -11.6640625 35.7734375 C-14.06640638 29.11998945 -17.61986428 24.70733347 -23.9765625 21.5234375 C-35.42429324 17.12046414 -45.74049903 21.09773176 -52.60546875 31.09375 Z " fill="#000000" transform="translate(135.6640625,88.0390625)"/>
</svg>
