<?xml version="1.0" encoding="UTF-8"?>
<svg version="1.1" xmlns="http://www.w3.org/2000/svg" width="512" height="512">
<path d="M0 0 C8.33093714 4.96770696 13.5631835 11.87165596 16.109375 21.2578125 C16.40379642 24.68751284 16.3947603 28.10548771 16.3878479 31.54623413 C16.3936403 32.58041587 16.3994327 33.61459762 16.40540063 34.6801182 C16.42240029 38.14403622 16.42527715 41.60782099 16.42822266 45.07177734 C16.43752084 47.55539273 16.44768934 50.03900498 16.45866394 52.52261353 C16.48032945 57.86893224 16.49594104 63.2152161 16.50603104 68.5615654 C16.52062986 76.29143522 16.54617004 84.0212386 16.57436232 91.75106938 C16.61980846 104.29285026 16.65643227 116.83464071 16.6875 129.37646484 C16.71769447 141.55812257 16.75204885 153.73975688 16.79199219 165.92138672 C16.79568451 167.04810654 16.79568451 167.04810654 16.79945143 168.19758837 C16.8118262 171.96595075 16.8242827 175.73431285 16.83677983 179.50267482 C16.94031502 210.75435559 17.02938189 242.00606218 17.109375 273.2578125 C17.8137973 272.54450775 18.5182196 271.831203 19.24398804 271.09628296 C25.91134329 264.34754242 32.58946243 257.60961642 39.27803612 250.88190269 C42.71566431 247.42347521 46.14950324 243.9614591 49.57470703 240.49072266 C52.88558948 237.1361088 56.20638897 233.79160395 59.53404617 230.45363235 C60.79651369 229.18382226 62.05547918 227.91051964 63.31071091 226.63355637 C72.97082553 216.81303457 82.34018039 207.51225241 96.921875 206.9453125 C107.75807024 207.19271422 116.0280504 211.57486794 123.5 219.26171875 C129.47071284 226.66714172 131.03122394 235.99981533 130.109375 245.2578125 C127.01761297 258.50023903 117.39428013 267.27207359 108.06860352 276.57324219 C106.96686088 277.67934125 105.86553389 278.78585446 104.7645874 279.89274597 C101.79615254 282.87447724 98.82144297 285.84986993 95.84508252 288.82368755 C93.35321195 291.31448273 90.86433696 293.80826087 88.37539428 296.30198121 C82.50218876 302.18624801 76.62371328 308.0652129 70.74194336 313.94091797 C64.68755896 319.9892553 58.64242848 326.0467305 52.60171372 332.10871768 C47.39927042 337.32880208 42.19101129 342.54303378 36.97811455 347.75267911 C33.87150322 350.85748257 30.76712839 353.96443961 27.6683979 357.07711029 C24.75545972 360.00266427 21.83529549 362.92081146 18.9095459 365.83355141 C17.841159 366.89958173 16.77529009 367.96814292 15.71223259 369.03948784 C7.21782911 377.59529027 -0.86542598 385.34485832 -13.59863281 385.6394043 C-24.66599383 385.60367752 -31.25477803 383.93302724 -39.48867798 376.27760315 C-40.01178326 375.79175076 -40.53488855 375.30589837 -41.07384551 374.80532318 C-46.51152834 369.72844347 -51.80468758 364.50659765 -57.07177734 359.25366211 C-58.12766478 358.20406447 -59.18373122 357.15464688 -60.23995972 356.10539246 C-63.65561751 352.71044465 -67.06624372 349.31046579 -70.4765625 345.91015625 C-71.66140451 344.7293715 -72.84627642 343.54861676 -74.03117752 342.36789131 C-79.59196759 336.8260646 -85.15040281 331.2818894 -90.70591199 325.73476881 C-97.0856369 319.3648423 -103.4735887 313.00331506 -109.868523 306.64865869 C-114.83894003 301.70846376 -119.80159675 296.7605579 -124.7585789 291.80688292 C-127.70814083 288.85966037 -130.66084932 285.91577049 -133.62186813 282.98005486 C-136.40349829 280.22182405 -139.17530868 277.45408083 -141.94014359 274.67901802 C-142.95004438 273.66862498 -143.96331293 272.66158384 -144.98034668 271.65837097 C-154.02751723 262.72722658 -161.68973923 253.64959441 -162.203125 240.4453125 C-161.95572328 229.60911726 -157.57356956 221.3391371 -149.88671875 213.8671875 C-142.48129578 207.89647466 -133.14862217 206.33596356 -123.890625 207.2578125 C-109.91596346 210.52053235 -100.71702514 221.14741458 -90.98046875 230.97265625 C-89.76065864 232.19620432 -88.54040042 233.41930581 -87.31971741 234.64198303 C-84.13425382 237.83502146 -80.95484685 241.03402297 -77.7767334 244.234375 C-74.52216364 247.50953685 -71.26180518 250.77892534 -68.00195312 254.04882812 C-61.62588461 260.44623782 -55.25621005 266.84997258 -48.890625 273.2578125 C-48.88915844 271.96828989 -48.88769188 270.67876728 -48.88618088 269.35016823 C-48.85045653 238.71955531 -48.79418312 208.08905646 -48.71270405 177.45853368 C-48.70268694 173.6860606 -48.69284275 169.91358709 -48.68310547 166.14111328 C-48.68019341 165.01459555 -48.68019341 165.01459555 -48.67722252 163.86531989 C-48.64622594 151.71501021 -48.62922842 139.5647194 -48.61743078 127.41437764 C-48.60500706 114.94119873 -48.57747817 102.46811865 -48.53601193 89.99500215 C-48.51091136 82.3022693 -48.4975052 74.60970045 -48.49919543 66.91692607 C-48.49922878 61.01188272 -48.4782165 55.10703008 -48.44945717 49.20205307 C-48.44095056 46.78420687 -48.43921337 44.36632572 -48.44482231 41.94847107 C-48.45147188 38.64103505 -48.43351709 35.33458864 -48.40960693 32.0272522 C-48.41736735 31.07586164 -48.42512777 30.12447109 -48.43312335 29.14425051 C-48.3197647 20.25460344 -45.73481181 12.3643408 -39.59375 5.7890625 C-28.99673947 -3.73852495 -12.95346121 -6.21592266 0 0 Z " fill="#000000" transform="translate(271.890625,2.7421875)"/>
<path d="M0 0 C0.78733249 -0.00350607 1.57466498 -0.00701215 2.38585603 -0.01062447 C5.02819321 -0.01993982 7.67031005 -0.0150148 10.3126564 -0.01015663 C12.224617 -0.01389282 14.13657608 -0.01849422 16.04853272 -0.02388728 C21.30601822 -0.03613656 26.56344017 -0.03585453 31.82093668 -0.03349853 C37.48979711 -0.03309085 43.15863704 -0.04412485 48.82748795 -0.05361366 C59.93531498 -0.0702353 71.04312079 -0.07572374 82.15095922 -0.07683842 C91.17914776 -0.07778836 100.20732928 -0.08189594 109.23551559 -0.08823967 C130.66104944 -0.10298834 152.08657636 -0.11528906 173.51211548 -0.11424255 C174.5399138 -0.11419582 174.5399138 -0.11419582 175.58847572 -0.11414814 C179.06133 -0.11398192 182.53418428 -0.11378384 186.00703856 -0.11357872 C186.69675656 -0.11353883 187.38647455 -0.11349894 188.09709309 -0.11345784 C189.49187127 -0.11337697 190.88664946 -0.11329337 192.28142764 -0.11320706 C213.9797099 -0.11198167 235.67792963 -0.1269924 257.376194 -0.15435219 C281.75581637 -0.18508031 306.13538724 -0.2022589 330.51503205 -0.20042574 C343.42283991 -0.19976146 356.33057727 -0.20527051 369.23836899 -0.22678185 C380.22828888 -0.24497942 391.21810631 -0.24935265 402.20803472 -0.235763 C407.81532483 -0.22922617 413.4224183 -0.22914214 419.02968979 -0.2464695 C424.16440101 -0.26217338 429.29875922 -0.25936382 434.4334617 -0.24190123 C436.28943879 -0.23882544 438.14544205 -0.24248548 440.00138828 -0.25362138 C451.87730192 -0.32014993 462.37913744 0.02445451 471.51193619 8.55414391 C478.9055991 16.77770775 480.62508685 25.49172525 480.35568619 36.26898766 C479.88135984 44.65468221 476.26849096 51.6602059 470.04318619 57.25726891 C463.16414474 62.43030808 456.72814482 64.5634816 448.08637238 64.51453781 C447.29903988 64.51804389 446.51170739 64.52154996 445.70051634 64.52516228 C443.05817917 64.53447763 440.41606232 64.52955261 437.77371597 64.52469444 C435.86175537 64.52843063 433.9497963 64.53303203 432.03783965 64.53842509 C426.78035416 64.55067437 421.52293221 64.55039234 416.2654357 64.54803634 C410.59657526 64.54762866 404.92773534 64.55866266 399.25888443 64.56815147 C388.15105739 64.58477311 377.04325158 64.59026155 365.93541315 64.59137623 C356.90722462 64.59232617 347.8790431 64.59643375 338.85085678 64.60277748 C317.42532294 64.61752615 295.99979602 64.62982687 274.5742569 64.62878036 C273.54645858 64.62873363 273.54645858 64.62873363 272.49789665 64.62868595 C269.02504237 64.62851973 265.55218809 64.62832165 262.07933381 64.62811653 C261.38961582 64.62807664 260.69989783 64.62803675 259.98927929 64.62799565 C258.5945011 64.62791478 257.19972292 64.62783118 255.80494474 64.62774487 C234.10666248 64.62651948 212.40844274 64.64153021 190.71017838 64.66889 C166.330556 64.69961812 141.95098514 64.71679671 117.57134032 64.71496356 C104.66353246 64.71429927 91.7557951 64.71980832 78.84800339 64.74131966 C67.8580835 64.75951723 56.86826607 64.76389047 45.87833765 64.75030081 C40.27104754 64.74376398 34.66395408 64.74367995 29.05668259 64.76100731 C23.92197137 64.77671119 18.78761315 64.77390163 13.65291068 64.75643905 C11.79693359 64.75336325 9.94093033 64.75702329 8.08498409 64.7681592 C-3.79092954 64.83468774 -14.29276506 64.4900833 -23.42556381 55.96039391 C-30.81922672 47.73683006 -32.53871448 39.02281256 -32.26931381 28.24555016 C-31.79498746 19.8598556 -28.18211858 12.85433191 -21.95681381 7.25726891 C-15.07777236 2.08422974 -8.64177244 -0.04894379 0 0 Z " fill="#000000" transform="translate(31.95681381225586,447.74273109436035)"/>
</svg>
