<?xml version="1.0" encoding="UTF-8"?>
<svg version="1.1" xmlns="http://www.w3.org/2000/svg" width="512" height="512">
<path d="M0 0 C3.55746089 3.14113884 7.00636005 6.38721463 10.44433594 9.65820312 C11.14042969 10.28984375 11.83652344 10.92148438 12.55371094 11.57226562 C39.77597574 37.10719997 53.0334951 75.48532591 54.66699219 112.02148438 C55.74255779 149.33277187 42.69197144 187.88853798 17.44433594 215.65820312 C13.46005658 219.73394495 9.40095233 223.73380377 5.25732422 227.64746094 C-2.13492497 234.76592311 -7.88322708 242.70456234 -11.36816406 252.40820312 C-11.76003906 253.48972656 -12.15191406 254.57125 -12.55566406 255.68554688 C-13.66773178 258.99134194 -14.6913552 262.27954119 -15.55566406 265.65820312 C-14.89179688 265.62339844 -14.22792969 265.58859375 -13.54394531 265.55273438 C-4.42429191 265.27315376 -4.42429191 265.27315376 -0.55566406 268.65820312 C2.21386147 272.53907883 1.73233827 277.00580592 1.71899414 281.57006836 C1.72410507 282.46970306 1.729216 283.36933777 1.73448181 284.29623413 C1.74838086 287.26982273 1.74742083 290.24317965 1.74511719 293.21679688 C1.74900388 295.28418565 1.75333849 297.35157363 1.75810242 299.41896057 C1.76556526 303.75239653 1.76527282 308.08575102 1.76000977 312.41918945 C1.75421441 317.97215986 1.77114755 323.5247968 1.79435444 329.07771206 C1.80908655 333.34737599 1.80996419 337.61695952 1.80684471 341.88664436 C1.80735816 343.93396732 1.81260037 345.98129474 1.82265663 348.02859306 C1.83499375 350.89159693 1.82824567 353.7539499 1.81665039 356.61694336 C1.82429413 357.46230148 1.83193787 358.30765961 1.83981323 359.17863464 C1.79823849 363.82318728 1.47867344 366.90241514 -1.55566406 370.65820312 C-4.85854742 372.86012537 -5.83029133 372.89780281 -9.66113281 372.85351562 C-10.64404297 372.84707031 -11.62695312 372.840625 -12.63964844 372.83398438 C-13.66380859 372.81722656 -14.68796875 372.80046875 -15.74316406 372.78320312 C-16.77892578 372.77417969 -17.8146875 372.76515625 -18.88183594 372.75585938 C-21.44001091 372.73228173 -23.99772154 372.69937343 -26.55566406 372.65820312 C-26.72582031 374.22441406 -26.72582031 374.22441406 -26.89941406 375.82226562 C-28.55919947 385.52410654 -34.85877158 393.74947758 -42.55566406 399.65820312 C-50.53548243 404.55413282 -57.91892611 407.75897559 -67.33691406 407.83520508 C-68.01072617 407.84177628 -68.68453827 407.84834747 -69.37876892 407.8551178 C-71.60440196 407.87479169 -73.82996744 407.88650476 -76.05566406 407.89648438 C-76.8203299 407.9005599 -77.58499573 407.90463543 -78.37283325 407.90883446 C-82.42612433 407.92967752 -86.47938182 407.94398264 -90.53271484 407.95336914 C-94.69058241 407.9643851 -98.84790765 407.99873346 -103.00558472 408.03854084 C-106.22638848 408.06487663 -109.44706683 408.07307623 -112.66796875 408.07665062 C-114.19876741 408.08147882 -115.72956192 408.09298329 -117.26025391 408.11168861 C-132.35140062 408.28453258 -144.20957457 405.27412937 -155.55566406 394.81445312 C-161.48142877 388.58218335 -164.96925422 381.06547257 -166.55566406 372.65820312 C-167.51605591 372.69747925 -167.51605591 372.69747925 -168.49584961 372.73754883 C-171.41136909 372.84181593 -174.32649604 372.90662065 -177.24316406 372.97070312 C-178.25056641 373.01259766 -179.25796875 373.05449219 -180.29589844 373.09765625 C-181.7605957 373.12182617 -181.7605957 373.12182617 -183.25488281 373.14648438 C-184.15037842 373.17266846 -185.04587402 373.19885254 -185.96850586 373.22583008 C-189.82624396 372.37943571 -191.13793232 370.75849242 -193.55566406 367.65820312 C-194.29059271 364.52786068 -194.2495979 361.47002799 -194.21850586 358.265625 C-194.22887375 357.32682999 -194.23924164 356.38803497 -194.24992371 355.42079163 C-194.27699371 352.32239881 -194.26733243 349.22542136 -194.25488281 346.12695312 C-194.26079124 343.97130946 -194.26803776 341.81566908 -194.27656555 339.66003418 C-194.28844607 335.14411308 -194.28173701 330.62868485 -194.26245117 326.11279297 C-194.23955904 320.3251538 -194.26634799 314.53898216 -194.30751324 308.75148773 C-194.33308492 304.30074074 -194.3305131 299.8503452 -194.31962013 295.39955139 C-194.31813292 293.26569791 -194.32582949 291.13181757 -194.34287071 288.99803162 C-194.36282962 286.01470842 -194.34446781 283.03398446 -194.31616211 280.05078125 C-194.32987854 279.16959122 -194.34359497 278.28840118 -194.35772705 277.38050842 C-194.24724418 271.5555479 -194.24724418 271.5555479 -192.26673317 268.98577881 C-188.96657276 266.1044017 -186.52743489 265.05200239 -182.18066406 265.34570312 C-180.8696875 265.41337891 -180.8696875 265.41337891 -179.53222656 265.48242188 C-178.87996094 265.54042969 -178.22769531 265.5984375 -177.55566406 265.65820312 C-181.80699006 248.75293035 -188.74547857 237.11346151 -201.25488281 225.05664062 C-223.23911748 203.81056274 -238.91275454 175.82658294 -244.55566406 145.65820312 C-244.81839111 144.26178589 -244.81839111 144.26178589 -245.08642578 142.8371582 C-246.55482238 134.28810343 -246.95635011 125.88364578 -246.93066406 117.22070312 C-246.92984833 116.17713654 -246.92984833 116.17713654 -246.92901611 115.11248779 C-246.79245444 76.8719416 -232.27053817 41.79298783 -206.55566406 13.65820312 C-206.09466309 13.15192383 -205.63366211 12.64564453 -205.15869141 12.12402344 C-152.84677881 -44.5366012 -58.57616414 -50.52332048 0 0 Z M-187.55566406 21.65820312 C-188.77382812 22.7796875 -188.77382812 22.7796875 -190.01660156 23.92382812 C-214.41640303 47.16906486 -227.16319031 80.06729541 -228.68066406 113.40429688 C-229.40393787 146.72009671 -216.95658149 180.00405008 -194.55566406 204.65820312 C-191.55915358 207.70480619 -188.49500804 210.68004186 -185.43066406 213.65820312 C-170.42183175 228.30394345 -162.01605724 244.89584404 -158.55566406 265.65820312 C-152.61566406 265.65820312 -146.67566406 265.65820312 -140.55566406 265.65820312 C-140.63346855 263.076576 -140.63346855 263.076576 -140.71284485 260.4427948 C-141.18794345 244.01903889 -141.50321258 227.59901413 -141.66706562 211.16916943 C-141.75513483 202.72651898 -141.89594508 194.29158677 -142.1706543 185.8527832 C-143.48335008 144.53823517 -143.16089207 113.76862604 -113.87387085 81.46035767 C-110.09315314 77.2558624 -107.20060104 72.75947269 -104.36933899 67.86149597 C-102.03283732 65.02306151 -100.1003946 64.45382359 -96.55566406 63.65820312 C-93.12560269 64.02310327 -91.28395595 64.8456471 -88.96992493 67.42741394 C-84.60556612 73.14403405 -80.53973769 79.00635022 -76.59863281 85.02148438 C-75.65507683 86.45309151 -75.65507683 86.45309151 -74.69245911 87.91362 C-73.37562752 89.91332669 -72.06060032 91.91422267 -70.74731445 93.91625977 C-68.73551812 96.98235599 -66.71732547 100.04416743 -64.69824219 103.10546875 C-63.414662 105.05639259 -62.13144585 107.00755601 -60.84863281 108.95898438 C-60.24657516 109.87255203 -59.64451752 110.78611969 -59.0242157 111.72737122 C-58.4663588 112.57893295 -57.90850189 113.43049469 -57.33374023 114.30786133 C-56.84411301 115.05348831 -56.35448578 115.7991153 -55.85002136 116.56733704 C-53.24004108 120.78342116 -52.30372471 123.52668081 -52.27719116 128.5680542 C-52.26602768 129.77677689 -52.2548642 130.98549957 -52.24336243 132.23085022 C-52.24099757 133.56698577 -52.2388219 134.90312167 -52.23681641 136.23925781 C-52.22751651 137.64870274 -52.21734775 139.05814217 -52.20637512 140.46757507 C-52.17906786 144.29158474 -52.16392359 148.11555755 -52.15094709 151.93963909 C-52.13531972 155.93687354 -52.10852825 159.93403269 -52.08291626 163.93121338 C-52.03612149 171.49944407 -51.99938077 179.06768891 -51.96624339 186.63599038 C-51.92802693 195.25265252 -51.87861552 203.86923905 -51.82825923 212.48583746 C-51.724929 230.2099049 -51.63606924 247.93401788 -51.55566406 265.65820312 C-45.94566406 265.65820312 -40.33566406 265.65820312 -34.55566406 265.65820312 C-34.28753906 264.47226562 -34.01941406 263.28632813 -33.74316406 262.06445312 C-28.85320398 241.46884007 -20.05616244 225.3192161 -4.55566406 210.65820312 C-2.86803555 209.01276532 -1.20162917 207.34531736 0.44433594 205.65820312 C1.42660156 204.65273438 1.42660156 204.65273438 2.42871094 203.62695312 C26.38072721 178.18825998 36.49464296 144.06657093 35.72167969 109.70507812 C34.50562087 77.43158351 20.6187598 47.79007188 -1.55566406 24.65820312 C-2.31234375 23.83835938 -3.06902344 23.01851562 -3.84863281 22.17382812 C-25.39915659 -0.46652638 -57.30143438 -14.60557942 -88.50488281 -15.58007812 C-126.61088754 -16.20829237 -159.6134859 -4.77598447 -187.55566406 21.65820312 Z M-96.55566406 89.65820312 C-104.42604337 99.297207 -110.84582674 110.20480501 -117.55566406 120.65820312 C-114.39432076 124.05239838 -110.8385519 125.8289491 -106.74316406 127.90820312 C-106.04384766 128.28460938 -105.34453125 128.66101563 -104.62402344 129.04882812 C-101.46137419 130.65825861 -99.21336358 131.65381261 -95.62988281 131.67773438 C-91.25564979 130.22706751 -87.26228224 128.22113907 -83.18066406 126.09570312 C-82.34921875 125.67095703 -81.51777344 125.24621094 -80.66113281 124.80859375 C-78.62213808 123.76565966 -76.58727917 122.7154202 -74.55566406 121.65820312 C-79.21638016 114.17652729 -84.06089717 106.81736616 -88.93066406 99.47070312 C-89.56182129 98.51333252 -90.19297852 97.55596191 -90.84326172 96.56958008 C-91.73343994 95.23092896 -91.73343994 95.23092896 -92.64160156 93.86523438 C-93.17833496 93.05546143 -93.71506836 92.24568848 -94.26806641 91.41137695 C-94.90542725 90.54355591 -94.90542725 90.54355591 -95.55566406 89.65820312 C-95.88566406 89.65820312 -96.21566406 89.65820312 -96.55566406 89.65820312 Z M-122.55566406 140.65820312 C-122.55566406 181.90820312 -122.55566406 223.15820312 -122.55566406 265.65820312 C-116.94566406 265.65820312 -111.33566406 265.65820312 -105.55566406 265.65820312 C-105.55566406 227.04820312 -105.55566406 188.43820312 -105.55566406 148.65820312 C-113.68726614 143.18461142 -113.68726614 143.18461142 -122.55566406 140.65820312 Z M-86.55566406 148.65820312 C-86.55566406 187.26820313 -86.55566406 225.87820313 -86.55566406 265.65820312 C-81.27566406 265.65820312 -75.99566406 265.65820312 -70.55566406 265.65820312 C-70.55566406 224.40820312 -70.55566406 183.15820312 -70.55566406 140.65820312 C-76.518512 140.65820312 -81.29432764 145.85215704 -86.55566406 148.65820312 Z M-175.55566406 284.65820312 C-175.55566406 292.90820312 -175.55566406 301.15820312 -175.55566406 309.65820312 C-123.41566406 309.65820312 -71.27566406 309.65820312 -17.55566406 309.65820312 C-17.55566406 301.40820312 -17.55566406 293.15820312 -17.55566406 284.65820312 C-69.69566406 284.65820312 -121.83566406 284.65820312 -175.55566406 284.65820312 Z M-175.55566406 328.65820312 C-175.55566406 337.23820312 -175.55566406 345.81820313 -175.55566406 354.65820312 C-123.41566406 354.65820312 -71.27566406 354.65820312 -17.55566406 354.65820312 C-17.55566406 346.07820313 -17.55566406 337.49820312 -17.55566406 328.65820312 C-69.69566406 328.65820312 -121.83566406 328.65820312 -175.55566406 328.65820312 Z M-146.55566406 372.65820312 C-143.56151728 380.14357009 -139.82942273 384.53980053 -132.48535156 387.93164062 C-128.51963585 389.42480484 -125.00872337 389.79443328 -120.76831055 389.83520508 C-119.02015297 389.85445793 -119.02015297 389.85445793 -117.23667908 389.87409973 C-115.35076805 389.88518013 -115.35076805 389.88518013 -113.42675781 389.89648438 C-111.47673607 389.908592 -111.47673607 389.908592 -109.48731995 389.92094421 C-106.73267754 389.93595025 -103.97806068 389.94579602 -101.22338867 389.95336914 C-97.72228426 389.9643824 -94.22182441 389.99873028 -90.72094631 390.03854084 C-87.35207838 390.07124476 -83.98327203 390.07550683 -80.61425781 390.08398438 C-79.37115341 390.10149246 -78.12804901 390.11900055 -76.84727478 390.13703918 C-67.91744402 390.1150394 -59.67897177 389.07967122 -52.61816406 383.22070312 C-51.93753906 382.37507813 -51.25691406 381.52945312 -50.55566406 380.65820312 C-49.81316406 379.79195313 -49.07066406 378.92570312 -48.30566406 378.03320312 C-46.39850495 375.70035415 -46.39850495 375.70035415 -45.55566406 372.65820312 C-78.88566406 372.65820312 -112.21566406 372.65820312 -146.55566406 372.65820312 Z " fill="#000000" transform="translate(352.5556640625,104.341796875)"/>
<path d="M0 0 C1.23746223 -0.00855011 1.23746223 -0.00855011 2.49992371 -0.01727295 C4.24578573 -0.02671623 5.99166552 -0.03325426 7.73754883 -0.03710938 C10.39761793 -0.04680086 13.05690953 -0.07782412 15.71679688 -0.109375 C17.41536001 -0.11590689 19.11392865 -0.12115663 20.8125 -0.125 C21.60332474 -0.1373468 22.39414948 -0.1496936 23.2089386 -0.16241455 C28.06703776 -0.14299193 31.41050484 0.48787108 35.60546875 3.203125 C38.09705915 6.9405106 38.0634016 8.77644083 37.60546875 13.203125 C35.8098447 15.95641521 34.55291953 17.72939961 31.60546875 19.203125 C30.27420942 19.31188968 28.93786736 19.36203227 27.60229492 19.38012695 C26.77771286 19.39296219 25.9531308 19.40579742 25.1035614 19.41902161 C24.21087051 19.42640854 23.31817963 19.43379547 22.3984375 19.44140625 C21.48089188 19.449478 20.56334625 19.45754974 19.61799622 19.46586609 C17.67365409 19.47970993 15.72928763 19.49043074 13.78491211 19.49829102 C10.81512223 19.51549665 7.84644762 19.55937882 4.87695312 19.60351562 C2.98828944 19.61364318 1.09961629 19.62215909 -0.7890625 19.62890625 C-2.11898979 19.65516838 -2.11898979 19.65516838 -3.4757843 19.68196106 C-7.64752679 19.66732779 -9.82074157 19.56230268 -13.43237305 17.30151367 C-16.3856118 14.14323482 -16.3856118 14.14323482 -16.4140625 11.14453125 C-15.85247743 4.69160093 -15.85247743 4.69160093 -13.51953125 2.203125 C-8.99171212 0.07238659 -4.90687583 0.02616852 0 0 Z " fill="#000000" transform="translate(51.39453125,210.796875)"/>
<path d="M0 0 C5.01603201 3.08864994 7.16246938 7.31527313 9.8125 12.375 C10.67960235 13.9955347 11.54810989 15.61531825 12.41796875 17.234375 C12.84770996 18.03810547 13.27745117 18.84183594 13.72021484 19.66992188 C14.90281711 21.82306115 16.14019086 23.92277889 17.42578125 26.015625 C17.79791748 26.62873535 18.17005371 27.2418457 18.5534668 27.87353516 C19.55961787 29.51813023 20.58010824 31.15392821 21.6015625 32.7890625 C23.41135365 36.94450475 23.39952607 39.49371759 23 44 C21.01078114 46.9838283 19.61497432 48.60276841 16.0625 49.4765625 C13.72999552 49.64443214 12.24255533 49.72203486 10 49 C6.31891859 45.67354566 3.78260005 42.33523835 1.3359375 38.03515625 C0.68882812 36.90529297 0.04171875 35.77542969 -0.625 34.61132812 C-1.29170926 33.42840942 -1.95837559 32.24546652 -2.625 31.0625 C-3.29877867 29.88306309 -3.97325253 28.70402304 -4.6484375 27.52539062 C-13.8109773 11.44513328 -13.8109773 11.44513328 -13 6 C-9.24647283 0.36970925 -6.73139654 -0.57045733 0 0 Z " fill="#000000" transform="translate(154,28)"/>
<path d="M0 0 C3.05149249 1.16609844 5.76986999 2.75313454 8.5625 4.4375 C9.33537354 4.88689941 10.10824707 5.33629883 10.90454102 5.79931641 C12.49594361 6.72838138 14.08280425 7.66526975 15.66503906 8.60986328 C17.89704398 9.93870435 20.14408178 11.23688073 22.3984375 12.52734375 C23.745528 13.30862762 25.09191889 14.09111941 26.4375 14.875 C27.05761963 15.23134521 27.67773926 15.58769043 28.31665039 15.95483398 C31.60081557 17.91060383 34.08756387 19.64989336 36 23 C36.54046356 27.24649943 36.48376179 29.25823192 34.125 32.875 C31.02015381 35.97984619 31.02015381 35.97984619 28.12158203 36.03710938 C22.05678817 35.51330166 17.96104185 33.75838759 12.875 30.5 C11.40237873 29.59239116 9.92972169 28.68484035 8.45703125 27.77734375 C7.72049316 27.31569824 6.98395508 26.85405273 6.22509766 26.37841797 C4.04829667 25.02991914 1.85038604 23.72832892 -0.36328125 22.44140625 C-1.0495459 22.04050781 -1.73581055 21.63960938 -2.44287109 21.2265625 C-3.7446996 20.4668173 -5.04833659 19.71016012 -6.35400391 18.95703125 C-9.37834125 17.16532656 -11.01358414 15.97962379 -13 13 C-13.5493667 8.13418066 -13.73490373 6.1023556 -11 2 C-7.25351635 -0.49765577 -4.33710027 -0.67440422 0 0 Z " fill="#000000" transform="translate(413,300)"/>
<path d="M0 0 C3.40066339 2.12541462 3.88251741 3.5692305 4.9375 7.4375 C5.00965524 11.55034887 4.40005213 12.73878267 2 16 C-0.3984375 17.81640625 -0.3984375 17.81640625 -3.375 19.5625 C-4.1959314 20.04589844 -4.1959314 20.04589844 -5.03344727 20.5390625 C-6.28721115 21.27379965 -7.54438879 22.00273024 -8.80419922 22.72705078 C-11.32358778 24.18759025 -13.81897055 25.68584195 -16.31640625 27.18359375 C-18.18935286 28.29033493 -20.06305182 29.39580388 -21.9375 30.5 C-22.83710449 31.04084229 -23.73670898 31.58168457 -24.66357422 32.13891602 C-32.78986009 36.85635172 -32.78986009 36.85635172 -38 36 C-41.15696409 34.63676551 -42.61385591 33.64942415 -44.375 30.6875 C-45.15024358 27.35395262 -44.97718613 25.28055344 -44 22 C-41.11461412 18.64409355 -37.92741698 16.60761183 -34.09765625 14.43359375 C-32.96005859 13.78326172 -31.82246094 13.13292969 -30.65039062 12.46289062 C-29.45454109 11.78755851 -28.25857651 11.11243005 -27.0625 10.4375 C-25.8700988 9.75906763 -24.6780381 9.08003644 -23.48632812 8.40039062 C-21.28961259 7.14849897 -19.09129728 5.89940724 -16.89086914 4.65405273 C-14.9983503 3.57122062 -13.1227121 2.45820104 -11.26757812 1.3125 C-7.59612745 -0.81257739 -4.11578064 -0.67698822 0 0 Z " fill="#000000" transform="translate(108,300)"/>
<path d="M0 0 C0.84954254 -0.00570007 1.69908508 -0.01140015 2.57437134 -0.01727295 C4.37150835 -0.02671605 6.16866263 -0.03325419 7.96582031 -0.03710938 C10.70929287 -0.04681391 13.45201577 -0.07784285 16.1953125 -0.109375 C17.94270389 -0.11590551 19.69010063 -0.12115579 21.4375 -0.125 C22.2553598 -0.1373468 23.0732196 -0.1496936 23.91586304 -0.16241455 C29.7563006 -0.13967338 33.1195129 0.9710754 37.3515625 5.203125 C37.85578244 8.24017068 37.80623478 11.16115094 37.3515625 14.203125 C35.47535637 16.70473318 34.11264947 17.82258152 31.3515625 19.203125 C28.34775694 19.32686956 25.36809811 19.39158549 22.36328125 19.40625 C21.02025688 19.41480011 21.02025688 19.41480011 19.65010071 19.42352295 C17.75282983 19.4329789 15.85554249 19.43950929 13.95825195 19.44335938 C11.0610672 19.45305139 8.16459588 19.48406331 5.26757812 19.515625 C3.42448338 19.52215643 1.58138356 19.52740635 -0.26171875 19.53125 C-1.12646317 19.5435968 -1.99120758 19.5559436 -2.88215637 19.56866455 C-7.59264416 19.55129805 -10.88870404 19.37587265 -14.6484375 16.203125 C-16.19834892 12.56420254 -16.92873605 10.32431921 -15.9609375 6.453125 C-12.07695951 -0.20512299 -7.19617585 0.03720959 0 0 Z " fill="#000000" transform="translate(439.6484375,210.796875)"/>
<path d="M0 0 C3.70303938 1.39892599 5.45715286 2.87585387 7.8125 6.0625 C8.56740621 10.21448414 8.34039185 12.21059177 6.11328125 15.8046875 C1.68835513 20.85960578 -4.78045947 23.62649901 -10.625 26.75 C-11.85282768 27.41879562 -13.08004705 28.0887093 -14.30664062 28.75976562 C-17.58912899 30.5487875 -20.87977096 32.32041714 -24.1875 34.0625 C-25.75576538 34.90905151 -25.75576538 34.90905151 -27.35571289 35.77270508 C-31.13758443 37.49523524 -33.23226952 37.23442014 -37.1875 36.0625 C-40.34600062 33.30893536 -41.09412809 31.71610338 -41.6875 27.5625 C-41.09279366 23.39955563 -40.02178114 22.11199415 -37.1875 19.0625 C-34.47363281 17.18139648 -34.47363281 17.18139648 -31.390625 15.43359375 C-30.2665625 14.79099609 -29.1425 14.14839844 -27.984375 13.48632812 C-26.802114 12.82416399 -25.61982213 12.16205497 -24.4375 11.5 C-23.2703264 10.83487316 -22.10365495 10.16886433 -20.9375 9.50195312 C-4.3568453 0.08542834 -4.3568453 0.08542834 0 0 Z " fill="#000000" transform="translate(441.1875,104.9375)"/>
<path d="M0 0 C3.08457998 0.62844714 4.36433151 1.83751289 6.08984375 4.42578125 C7.33662292 8.48792491 7.25174742 12.52139319 7.2578125 16.734375 C7.2611409 17.5381105 7.2644693 18.34184601 7.26789856 19.16993713 C7.27295265 20.86694773 7.27530735 22.56396822 7.27514648 24.26098633 C7.27733303 26.85059033 7.29550475 29.43976818 7.31445312 32.02929688 C7.31738739 33.68098813 7.31937196 35.3326814 7.3203125 36.984375 C7.32749802 37.75535019 7.33468353 38.52632538 7.34208679 39.32066345 C7.3208134 44.35082744 6.81099117 48.15744823 3.73828125 52.20703125 C1.63234745 53.76402496 0.31976343 53.89021921 -2.28515625 53.92578125 C-3.41050781 53.9721875 -3.41050781 53.9721875 -4.55859375 54.01953125 C-8.23725259 53.09070045 -9.58755279 51.4038666 -11.91015625 48.42578125 C-12.64578056 45.18540111 -12.6115033 42.01908626 -12.57421875 38.70703125 C-12.5813942 37.30378601 -12.5813942 37.30378601 -12.5887146 35.87219238 C-12.59210985 33.89866449 -12.58293364 31.92508007 -12.56201172 29.95166016 C-12.53524024 26.93524469 -12.56177161 23.92255008 -12.59375 20.90625 C-12.59044583 18.98566889 -12.58403946 17.06509009 -12.57421875 15.14453125 C-12.5843399 14.24545044 -12.59446106 13.34636963 -12.60488892 12.42004395 C-12.52078752 7.91435856 -12.36993617 6.01435762 -9.51342773 2.35766602 C-6.06166745 -0.20388131 -4.15115804 -0.24174797 0 0 Z " fill="#000000" transform="translate(258.91015625,-0.42578125)"/>
<path d="M0 0 C3.09780188 1.13490019 5.81435664 2.722335 8.625 4.4375 C9.39336182 4.88762451 10.16172363 5.33774902 10.95336914 5.80151367 C12.53417196 6.73085188 14.11014107 7.66846151 15.68115234 8.61425781 C17.90127304 9.94100082 20.14136206 11.22258096 22.39453125 12.4921875 C23.74277993 13.26459182 25.0904655 14.03798016 26.4375 14.8125 C27.0577002 15.16046631 27.67790039 15.50843262 28.31689453 15.86694336 C32.04042648 18.06379589 34.24435885 20.02138876 36 24 C35.93220153 27.8645127 35.56576361 30.17311472 33.375 33.375 C29.9590519 35.71222765 28.1883555 36.13296367 24 36 C21.63110352 34.90820312 21.63110352 34.90820312 19.00390625 33.40625 C17.5489978 32.58471436 17.5489978 32.58471436 16.06469727 31.74658203 C15.05334717 31.17020996 14.04199707 30.59383789 13 30 C11.00119767 28.90146383 9.00119691 27.80510539 7 26.7109375 C4.99950836 25.59984306 2.99950949 24.48786094 1 23.375 C-0.02222656 22.81554687 -1.04445313 22.25609375 -2.09765625 21.6796875 C-3.07605469 21.133125 -4.05445312 20.5865625 -5.0625 20.0234375 C-5.94035156 19.53794434 -6.81820312 19.05245117 -7.72265625 18.55224609 C-10.78626521 16.46407866 -12.71334485 14.46684799 -13.43359375 10.78125 C-13.43986247 7.12031611 -13.37885585 4.67535174 -11.5625 1.4375 C-7.74283509 -0.70523885 -4.29485832 -0.56708393 0 0 Z " fill="#000000" transform="translate(77,106)"/>
<path d="M0 0 C2.9375 1.9375 2.9375 1.9375 5 5 C6.18808442 13.62429629 2.85330671 18.80947936 -1.625 26 C-2.24246094 27.02867188 -2.85992187 28.05734375 -3.49609375 29.1171875 C-5.29850699 32.09970709 -7.13743196 35.05473199 -9 38 C-9.55913086 38.88558594 -10.11826172 39.77117187 -10.69433594 40.68359375 C-14.61284722 46.74189815 -14.61284722 46.74189815 -18 49 C-22.21178243 49.46797583 -24.28599114 49.46565795 -27.875 47.125 C-30.36406149 44.63593851 -30.93003278 43.7527184 -31.25439453 40.26318359 C-30.95216376 36.38639234 -29.8322562 34.16984865 -27.9296875 30.7890625 C-27.61097687 30.21723236 -27.29226624 29.64540222 -26.96389771 29.0562439 C-26.28891024 27.85116586 -25.60778179 26.64950922 -24.92089844 25.45117188 C-23.88609661 23.64437503 -22.87129937 21.82750107 -21.859375 20.0078125 C-9.96081012 -1.20216674 -9.96081012 -1.20216674 0 0 Z " fill="#000000" transform="translate(366,28)"/>
</svg>
